<svg xmlns="http://www.w3.org/2000/svg" x="0px" y="0px"
width="50" height="50"
viewBox="0 0 172 172"
style=" fill:#000000;"><g fill="none" fill-rule="nonzero" stroke="none" stroke-width="1" stroke-linecap="butt" stroke-linejoin="miter" stroke-miterlimit="10" stroke-dasharray="" stroke-dashoffset="0" font-family="none" font-weight="none" font-size="none" text-anchor="none" style="mix-blend-mode: normal"><path d="M0,172v-172h172v172z" fill="none"></path><g fill="#f4c430"><path d="M14.33333,43v86c0,7.91917 6.41417,14.33333 14.33333,14.33333h114.66667c7.91917,0 14.33333,-6.41417 14.33333,-14.33333v-86c0,-7.91917 -6.41417,-14.33333 -14.33333,-14.33333h-114.66667c-7.91917,0 -14.33333,6.41417 -14.33333,14.33333zM143.33333,129h-114.66667v-86h114.66667z"></path><path d="M21.5,60.028l64.5,40.30533l64.5,-40.30533v-14.33333l-64.5,40.30533l-64.5,-40.30533z"></path><path d="M150.5,50.16667l-64.5,43l-64.5,-43v86h129z" opacity="0.3"></path></g></g></svg>