<svg xmlns="http://www.w3.org/2000/svg" x="0px" y="0px"
width="50" height="50"
viewBox="0 0 172 172"
style=" fill:#000000;"><g fill="none" fill-rule="nonzero" stroke="none" stroke-width="1" stroke-linecap="butt" stroke-linejoin="miter" stroke-miterlimit="10" stroke-dasharray="" stroke-dashoffset="0" font-family="none" font-weight="none" font-size="none" text-anchor="none" style="mix-blend-mode: normal"><path d="M0,172v-172h172v172z" fill="none"></path><g fill="#f4c430"><path d="M86,6.88c-43.62608,0 -79.12,35.49048 -79.12,79.12c0,43.62952 35.49392,79.12 79.12,79.12c43.62952,0 79.12,-35.49048 79.12,-79.12c0,-43.62952 -35.49048,-79.12 -79.12,-79.12zM110.08,55.04h-11.3176c-6.66672,0 -9.3224,1.5652 -9.3224,6.21264v10.98736h20.64l-3.44,17.2h-17.2v44.72h-20.64v-44.72h-10.32v-17.2h10.32v-9.54256c0,-14.534 5.79984,-24.85744 22.63864,-24.85744c9.01968,0 18.64136,3.44 18.64136,3.44z"></path></g></g></svg>