<svg xmlns="http://www.w3.org/2000/svg" x="0px" y="0px"
width="50" height="50"
viewBox="0 0 172 172"
style=" fill:#000000;"><g fill="none" fill-rule="nonzero" stroke="none" stroke-width="1" stroke-linecap="butt" stroke-linejoin="miter" stroke-miterlimit="10" stroke-dasharray="" stroke-dashoffset="0" font-family="none" font-weight="none" font-size="none" text-anchor="none" style="mix-blend-mode: normal"><path d="M0,172v-172h172v172z" fill="none"></path><g fill="#f4c430"><path d="M86,6.88c-24.768,0 -44.72,19.952 -44.72,44.72c0,32.68 40.24531,85.99865 41.96531,88.06265l2.75469,3.44l2.75469,-3.44c1.72,-2.064 41.96531,-55.38265 41.96531,-88.06265c0,-24.768 -19.952,-44.72 -44.72,-44.72zM86,37.84c7.568,0 13.76,6.192 13.76,13.76c0,7.568 -6.192,13.76 -13.76,13.76c-7.568,0 -13.76,-6.192 -13.76,-13.76c0,-7.568 6.192,-13.76 13.76,-13.76zM25.11469,110.08l-19.61203,55.04h160.99469l-19.61203,-55.04h-29.92531c-1.376,2.408 -2.74931,4.816 -4.12531,6.88h28.89063l14.79469,41.28h-141.38266l14.78797,-41.28h28.89734c-1.376,-2.064 -2.74931,-4.472 -4.12531,-6.88z"></path></g></g></svg>