<svg xmlns="http://www.w3.org/2000/svg" x="0px" y="0px"
width="50" height="50"
viewBox="0 0 172 172"
style=" fill:#000000;"><g fill="none" fill-rule="nonzero" stroke="none" stroke-width="1" stroke-linecap="butt" stroke-linejoin="miter" stroke-miterlimit="10" stroke-dasharray="" stroke-dashoffset="0" font-family="none" font-weight="none" font-size="none" text-anchor="none" style="mix-blend-mode: normal"><path d="M0,172v-172h172v172z" fill="none"></path><g fill="#f4c430"><path d="M131.75469,22.87734c-0.21364,0.00675 -0.42673,0.02544 -0.63828,0.05599h-27.62526c-2.06765,-0.02924 -3.99087,1.05709 -5.03322,2.843c-1.04236,1.78592 -1.04236,3.99474 0,5.78066c1.04236,1.78592 2.96558,2.87225 5.03322,2.843h14.5349l-32.02604,32.02604l-36.07969,-36.07969c-1.43802,-1.49775 -3.57339,-2.10107 -5.58257,-1.57728c-2.00918,0.52378 -3.57822,2.09283 -4.10201,4.10201c-0.52378,2.00918 0.07954,4.14455 1.57728,5.58257l40.13333,40.13333c2.23904,2.23811 5.86825,2.23811 8.10729,0l36.07969,-36.07969v14.5349c-0.02924,2.06765 1.05709,3.99087 2.843,5.03322c1.78592,1.04236 3.99474,1.04236 5.78066,0c1.78592,-1.04236 2.87225,-2.96558 2.843,-5.03322v-27.64766c0.23111,-1.67076 -0.28511,-3.35853 -1.41129,-4.61415c-1.12617,-1.25562 -2.74806,-1.95172 -4.43402,-1.90304zM86.0112,91.73333c-64.6032,0 -74.54453,19.04819 -74.54453,36.22526c0,5.504 1.43118,9.31927 2.95625,11.8362c1.57093,2.57427 4.59007,3.80837 7.5026,3.04583c7.2756,-1.90346 22.96997,-6.00799 30.24557,-7.90573c2.3908,-0.62493 4.21857,-2.49149 4.8263,-4.88229l3.06823,-12.12735c0.688,-2.71187 2.93601,-4.71199 5.71094,-5.05026c4.7988,-0.59053 12.68384,-1.38854 20.23464,-1.38854c7.5508,0 15.41891,0.79801 20.22344,1.38854c2.77493,0.344 5.02294,2.33839 5.71094,5.05026l3.06823,12.12735c0.60773,2.39653 2.4579,4.26309 4.8487,4.88229l30.18958,7.89453c2.924,0.76253 5.971,-0.47703 7.5362,-3.05703c1.51933,-2.50547 2.94505,-6.327 2.94505,-11.8138c0,-17.17707 -9.91894,-36.22526 -74.52214,-36.22526z"></path></g></g></svg>