<svg xmlns="http://www.w3.org/2000/svg" x="0px" y="0px"
width="50" height="50"
viewBox="0 0 172 172"
style=" fill:#000000;"><g fill="none" fill-rule="nonzero" stroke="none" stroke-width="1" stroke-linecap="butt" stroke-linejoin="miter" stroke-miterlimit="10" stroke-dasharray="" stroke-dashoffset="0" font-family="none" font-weight="none" font-size="none" text-anchor="none" style="mix-blend-mode: normal"><path d="M0,172v-172h172v172z" fill="none"></path><g><path d="M86,14.33333c-39.41667,0 -71.66667,32.25 -71.66667,71.66667c0,39.41667 32.25,71.66667 71.66667,71.66667c39.41667,0 71.66667,-32.25 71.66667,-71.66667c0,-39.41667 -32.25,-71.66667 -71.66667,-71.66667z" fill="#f4c430"></path><path d="M121.83333,53.75l-13.25833,68.44167c0,0 -0.71667,3.225 -4.3,3.225c-2.15,0 -3.225,-1.075 -3.225,-1.075l-29.38333,-24.00833l-14.33333,-7.16667l-18.275,-5.01667c0,0 -3.225,-1.075 -3.225,-3.58333c0,-2.15 3.225,-3.225 3.225,-3.225l76.325,-30.45833c0,0 2.50833,-0.71667 3.94167,-0.71667c1.075,0 2.15,0.35833 2.15,1.79167c0.35833,1.075 0.35833,1.79167 0.35833,1.79167z" fill="#ffffff"></path><path d="M82.41667,109.29167l-12.18333,12.18333c0,0 -0.35833,0.35833 -1.075,0.35833c-0.35833,0 -0.35833,0 -0.71667,0l3.58333,-21.5z" fill="#b0bec5"></path><path d="M107.14167,65.21667c-0.71667,-0.71667 -1.79167,-1.075 -2.50833,-0.35833l-47.3,28.30833c0,0 7.525,21.14167 8.6,24.725c1.075,3.58333 2.15,3.58333 2.15,3.58333l3.58333,-21.5l35.11667,-32.60833c0.71667,-0.35833 1.075,-1.43333 0.35833,-2.15z" fill="#cfd8dc"></path></g></g></svg>