<svg xmlns="http://www.w3.org/2000/svg" x="0px" y="0px"
width="50" height="50"
viewBox="0 0 172 172"
style=" fill:#000000;"><g fill="none" fill-rule="nonzero" stroke="none" stroke-width="1" stroke-linecap="butt" stroke-linejoin="miter" stroke-miterlimit="10" stroke-dasharray="" stroke-dashoffset="0" font-family="none" font-weight="none" font-size="none" text-anchor="none" style="mix-blend-mode: normal"><path d="M0,172v-172h172v172z" fill="none"></path><g fill="#f4c430"><path d="M86,6.88c-43.688,0 -79.12,35.432 -79.12,79.12c0,43.688 35.432,79.12 79.12,79.12c43.688,0 79.12,-35.432 79.12,-79.12c0,-43.688 -35.432,-79.12 -79.12,-79.12zM124.528,70.52c0,0.688 0,1.72 0,2.408c0,25.112 -19.264,54.352 -54.352,54.352c-10.664,0 -20.64,-3.096 -29.24,-8.6c1.376,0.344 3.096,0.344 4.472,0.344c8.944,0 17.2,-3.096 23.736,-8.256c-8.256,0 -15.48,-5.504 -17.888,-13.072c1.032,0.344 2.408,0.344 3.44,0.344c1.72,0 3.44,-0.344 5.16,-0.688c-8.6,-1.72 -15.136,-9.288 -15.136,-18.576v-0.344c2.408,1.376 5.504,2.408 8.6,2.408c-5.16,-3.44 -8.6,-9.288 -8.6,-15.824c0,-3.44 1.032,-6.88 2.408,-9.632c9.288,11.696 23.392,19.264 39.216,19.952c-0.344,-1.376 -0.344,-2.752 -0.344,-4.472c0,-10.664 8.6,-18.92 18.92,-18.92c5.504,0 10.32,2.408 13.76,5.848c4.472,-0.688 8.256,-2.408 12.04,-4.472c-1.376,4.472 -4.472,8.256 -8.256,10.664c3.784,-0.344 7.568,-1.376 11.008,-3.096c-1.72,3.784 -5.16,6.88 -8.944,9.632z"></path></g></g></svg>