<svg xmlns="http://www.w3.org/2000/svg" x="0px" y="0px"
width="50" height="50"
viewBox="0 0 172 172"
style=" fill:#000000;"><g fill="none" fill-rule="nonzero" stroke="none" stroke-width="1" stroke-linecap="butt" stroke-linejoin="miter" stroke-miterlimit="10" stroke-dasharray="" stroke-dashoffset="0" font-family="none" font-weight="none" font-size="none" text-anchor="none" style="mix-blend-mode: normal"><path d="M0,172v-172h172v172z" fill="none"></path><g fill="#f4c430"><path d="M86,6.88c-43.62608,0 -79.12,35.49392 -79.12,79.12c0,13.6224 3.51874,27.01453 10.19234,38.83437l-10.06469,35.91844c-0.33024,1.17992 -0.01328,2.44186 0.83984,3.31906c0.65704,0.67768 1.55402,1.04813 2.4725,1.04813c0.2752,0 0.55465,-0.03542 0.82641,-0.10078l37.48391,-9.28531c11.44488,6.14384 24.33209,9.3861 37.36969,9.3861c43.62608,0 79.12,-35.49392 79.12,-79.12c0,-43.62608 -35.49392,-79.12 -79.12,-79.12zM57.25047,48.16c1.35536,0 2.70335,0.01886 3.89016,0.0739c1.24872,0.06192 2.92771,-0.47472 4.57547,3.44c1.69248,4.01792 5.75291,13.88755 6.25515,14.89547c0.50912,1.00448 0.84893,2.17575 0.17469,3.51391c-0.67424,1.33816 -1.01082,2.17961 -2.02906,3.35265c-1.01824,1.17304 -2.13527,2.61263 -3.05031,3.51391c-1.01824,1.00104 -2.07696,2.08276 -0.8936,4.09172c1.18336,2.00896 5.2603,8.57613 11.30094,13.89437c7.7572,6.83184 14.30368,8.95271 16.33328,9.95719c2.0296,1.00448 3.21742,0.83425 4.40078,-0.50391c1.18336,-1.3416 5.07793,-5.85542 6.42985,-7.86094c1.35192,-2.00552 2.70427,-1.67861 4.56875,-1.00781c1.86448,0.66736 11.85134,5.51942 13.88094,6.5239c2.0296,1.00448 3.38775,1.50893 3.89687,2.34485c0.50912,0.83248 0.50998,4.84535 -1.1825,9.52719c-1.69248,4.68528 -9.81201,8.96615 -13.71297,9.54063c-3.50192,0.51256 -7.93506,0.72783 -12.79922,-0.79953c-2.94808,-0.9288 -6.72944,-2.15866 -11.5764,-4.2261c-20.37512,-8.68944 -33.68411,-28.94996 -34.70235,-30.28812c-1.0148,-1.33816 -8.29094,-10.87142 -8.29094,-20.74078c0,-9.86936 5.24396,-14.72073 7.10844,-16.72969c1.86448,-2.00896 4.06667,-2.51281 5.42203,-2.51281z"></path></g></g></svg>