<svg xmlns="http://www.w3.org/2000/svg" x="0px" y="0px"
width="50" height="50"
viewBox="0 0 172 172"
style=" fill:#000000;"><g fill="none" fill-rule="nonzero" stroke="none" stroke-width="1" stroke-linecap="butt" stroke-linejoin="miter" stroke-miterlimit="10" stroke-dasharray="" stroke-dashoffset="0" font-family="none" font-weight="none" font-size="none" text-anchor="none" style="mix-blend-mode: normal"><path d="M0,172v-172h172v172z" fill="none"></path><g><path d="M139.03333,94.95833c0,-8.24167 -6.80833,-15.05 -15.40833,-15.05c-12.18333,-0.35833 -24.725,-0.71667 -37.625,-0.71667c-12.9,0 -25.44167,0.35833 -37.625,0.71667c-8.6,0 -15.40833,6.80833 -15.40833,15.05c-0.35833,6.45 -0.71667,13.25833 -0.71667,20.06667c0,6.80833 0.35833,13.25833 0.71667,20.06667c0,8.24167 6.80833,15.05 15.40833,15.05c12.18333,0.35833 24.725,0.71667 37.625,0.71667c12.9,0 25.44167,-0.35833 37.625,-0.71667c8.6,0 15.40833,-6.80833 15.40833,-15.05c0.35833,-6.80833 0.71667,-13.25833 0.71667,-20.06667c0,-6.80833 -0.35833,-13.61667 -0.71667,-20.06667z" fill="#f4c430"></path><path d="M63.78333,90.65833v6.80833c0,0.35833 -0.35833,0.71667 -0.71667,0.71667h-6.80833v39.41667c0,0.35833 -0.35833,0.71667 -0.71667,0.71667h-7.16667c-0.35833,0 -0.71667,-0.35833 -0.71667,-0.71667v-39.41667h-6.80833c-0.35833,0 -0.71667,-0.35833 -0.71667,-0.71667v-6.80833c0,-0.35833 0.35833,-0.71667 0.71667,-0.71667h22.575c0,-0.35833 0.35833,0 0.35833,0.71667z" fill="#ffffff"></path><path d="M82.41667,137.6c0,0.35833 -0.35833,0.71667 -0.71667,0.71667h-6.45c-0.35833,0 -0.71667,-0.35833 -0.71667,-0.71667v-1.79167c-0.71667,0.71667 -1.79167,1.43333 -2.50833,2.15c-1.43333,0.71667 -2.86667,1.075 -4.3,1.075c-1.79167,0 -3.225,-0.71667 -3.94167,-1.79167c-0.71667,-1.075 -1.43333,-2.86667 -1.43333,-5.01667v-29.025c0,-0.35833 0.35833,-0.71667 0.71667,-0.71667h6.45c0.35833,0 0.71667,0.35833 0.71667,0.71667v26.51667c0,0.71667 0,1.075 0.35833,1.43333c0,0 0,0.35833 0.71667,0.35833c0,0 0.71667,0 1.43333,-0.71667c0.71667,-0.35833 1.075,-1.075 1.79167,-1.43333v-26.15833c0,-0.35833 0.35833,-0.71667 0.71667,-0.71667h6.45c0.35833,0 0.71667,0.35833 0.71667,0.71667v34.4z" fill="#ffffff"></path><path d="M105.70833,104.275c-1.075,-1.79167 -2.86667,-2.50833 -5.375,-2.50833c-1.075,0 -2.15,0.35833 -3.225,1.075c-0.71667,0.35833 -1.075,0.71667 -1.79167,1.075v-13.25833c0,-0.35833 -0.35833,-0.71667 -0.71667,-0.71667h-6.45c-0.35833,0 -0.71667,0.35833 -0.71667,0.71667v46.94167c0,0.35833 0.35833,0.71667 0.71667,0.71667h6.45c0.35833,0 0.71667,-0.35833 0.71667,-0.71667v-0.71667c0.71667,0.35833 1.075,0.71667 1.79167,1.075c1.075,0.71667 2.50833,0.71667 3.58333,0.71667c2.15,0 3.94167,-0.71667 5.01667,-2.15c1.075,-1.43333 1.79167,-3.58333 1.79167,-6.09167v-19.35c0,-2.86667 -0.71667,-5.375 -1.79167,-6.80833zM99.25833,129.35833c0,1.075 -0.35833,1.79167 -0.35833,1.79167c0,0 -0.35833,0.35833 -1.075,0.35833c-0.35833,0 -0.71667,0 -1.43333,-0.35833c-0.35833,0 -0.71667,-0.35833 -1.075,-0.71667v-21.14167c0.35833,-0.35833 0.71667,-0.71667 1.075,-0.71667c1.075,-0.71667 2.15,-0.35833 2.50833,0.35833c0.35833,0.35833 0.71667,1.43333 0.71667,2.15v18.275z" fill="#ffffff"></path><path d="M130.79167,121.83333c0.35833,0 0.71667,-0.35833 0.71667,-0.71667v-8.95833c0,-3.58333 -1.075,-6.09167 -2.50833,-8.24167c-1.79167,-1.79167 -4.3,-2.86667 -7.525,-2.86667c-3.225,0 -5.73333,1.075 -7.525,3.225c-1.79167,2.15 -2.86667,4.65833 -2.86667,7.88333v15.76667c0,3.58333 1.075,6.45 2.86667,8.24167c1.79167,2.15 4.3,3.225 7.525,3.225c3.58333,0 6.09167,-1.075 7.88333,-2.86667c1.79167,-1.79167 2.50833,-4.65833 2.50833,-8.6v-2.50833c0,-0.35833 -0.35833,-0.71667 -0.71667,-0.71667h-6.80833c-0.35833,0 -0.71667,0.35833 -0.71667,0.71667v2.50833c0,2.50833 -0.35833,3.225 -0.35833,3.58333c-0.35833,0.35833 -0.71667,0.71667 -1.79167,0.71667c-1.075,0 -1.43333,-0.35833 -1.43333,-0.71667c-0.35833,-0.35833 -0.71667,-1.43333 -0.71667,-3.225v-6.45zM119.325,112.15833c0,-1.79167 0.35833,-2.50833 0.35833,-2.86667c0.35833,-0.35833 0.71667,-0.71667 1.79167,-0.71667c0.71667,0 1.43333,0.35833 1.43333,0.71667c0.35833,0.35833 0.71667,1.075 0.71667,2.86667v2.50833h-4.3z" fill="#ffffff"></path><g fill="#455a64"><path d="M51.95833,21.5h7.525l5.01667,19.70833h0.35833l5.01667,-19.70833h7.525l-8.95833,28.66667v21.5h-7.525v-20.425zM77.04167,42.64167c0,-2.86667 1.075,-5.01667 2.86667,-6.80833c1.79167,-1.79167 4.3,-2.50833 7.16667,-2.50833c2.86667,0 5.01667,0.71667 6.80833,2.50833c1.79167,1.79167 2.50833,3.94167 2.50833,6.80833v18.63333c0,3.225 -0.71667,5.375 -2.50833,7.16667c-1.79167,1.79167 -4.3,2.50833 -7.16667,2.50833c-2.86667,0 -5.375,-1.075 -7.16667,-2.86667c-1.79167,-1.79167 -2.50833,-4.3 -2.50833,-7.525v-17.91667v0zM84.20833,62.35c0,1.075 0.35833,1.79167 0.71667,2.15c0.35833,0.35833 1.075,0.71667 2.15,0.71667c1.075,0 1.79167,-0.35833 2.15,-0.71667c0.35833,-0.71667 0.71667,-1.43333 0.71667,-2.15v-19.70833c0,-0.71667 -0.35833,-1.43333 -0.71667,-1.79167c-0.71667,-0.35833 -1.43333,-0.71667 -2.15,-0.71667c-0.71667,0 -1.43333,0.35833 -2.15,0.71667c-0.35833,0.35833 -0.71667,1.075 -0.71667,1.79167c0,-0.35833 0,19.70833 0,19.70833zM121.475,34.4v37.26667h-6.80833v-4.65833c-1.075,1.43333 -2.50833,2.50833 -3.94167,3.225c-1.43333,0.71667 -2.50833,1.075 -3.94167,1.075c-1.43333,0 -2.86667,-0.35833 -3.58333,-1.79167c-0.71667,-1.075 -1.075,-2.86667 -1.075,-5.01667v-30.1h6.80833v28.30833c0,0.71667 0,1.43333 0.35833,1.79167c0.35833,0.35833 0.71667,0.71667 1.43333,0.71667c0.35833,0 1.075,-0.35833 1.79167,-0.71667c0.71667,-0.35833 1.43333,-1.075 2.15,-1.79167v-28.30833z"></path></g></g></g></svg>